<svg width="39" height="39" viewBox="0 0 39 39" fill="none" xmlns="http://www.w3.org/2000/svg">
<path d="M16.4 10.2C16.4 8.55566 15.7468 6.97866 14.5841 5.81594C13.4213 4.65321 11.8443 4 10.2 4C8.55566 4 6.97866 4.65321 5.81594 5.81594C4.65321 6.97866 4 8.55566 4 10.2C4 11.8443 4.65321 13.4213 5.81594 14.5841C6.97866 15.7468 8.55566 16.4 10.2 16.4C11.8443 16.4 13.4213 15.7468 14.5841 14.5841C15.7468 13.4213 16.4 11.8443 16.4 10.2ZM16.4 28.8C16.4 27.1557 15.7468 25.5787 14.5841 24.4159C13.4213 23.2532 11.8443 22.6 10.2 22.6C8.55566 22.6 6.97866 23.2532 5.81594 24.4159C4.65321 25.5787 4 27.1557 4 28.8C4 30.4443 4.65321 32.0213 5.81594 33.1841C6.97866 34.3468 8.55566 35 10.2 35C11.8443 35 13.4213 34.3468 14.5841 33.1841C15.7468 32.0213 16.4 30.4443 16.4 28.8ZM35 10.2C35 8.55566 34.3468 6.97866 33.1841 5.81594C32.0213 4.65321 30.4443 4 28.8 4C27.1557 4 25.5787 4.65321 24.4159 5.81594C23.2532 6.97866 22.6 8.55566 22.6 10.2C22.6 11.8443 23.2532 13.4213 24.4159 14.5841C25.5787 15.7468 27.1557 16.4 28.8 16.4C30.4443 16.4 32.0213 15.7468 33.1841 14.5841C34.3468 13.4213 35 11.8443 35 10.2ZM35 28.8C35 27.1557 34.3468 25.5787 33.1841 24.4159C32.0213 23.2532 30.4443 22.6 28.8 22.6C27.1557 22.6 25.5787 23.2532 24.4159 24.4159C23.2532 25.5787 22.6 27.1557 22.6 28.8C22.6 30.4443 23.2532 32.0213 24.4159 33.1841C25.5787 34.3468 27.1557 35 28.8 35C30.4443 35 32.0213 34.3468 33.1841 33.1841C34.3468 32.0213 35 30.4443 35 28.8Z" stroke="#034CA0" stroke-width="2" stroke-linecap="round" stroke-linejoin="round"/>
</svg>
