<svg width="33" height="33" viewBox="0 0 33 33" fill="none" xmlns="http://www.w3.org/2000/svg">
<path d="M13.4 7.2C13.4 5.55566 12.7468 3.97866 11.5841 2.81594C10.4213 1.65321 8.84434 1 7.2 1C5.55566 1 3.97866 1.65321 2.81594 2.81594C1.65321 3.97866 1 5.55566 1 7.2C1 8.84434 1.65321 10.4213 2.81594 11.5841C3.97866 12.7468 5.55566 13.4 7.2 13.4C8.84434 13.4 10.4213 12.7468 11.5841 11.5841C12.7468 10.4213 13.4 8.84434 13.4 7.2ZM13.4 25.8C13.4 24.1557 12.7468 22.5787 11.5841 21.4159C10.4213 20.2532 8.84434 19.6 7.2 19.6C5.55566 19.6 3.97866 20.2532 2.81594 21.4159C1.65321 22.5787 1 24.1557 1 25.8C1 27.4443 1.65321 29.0213 2.81594 30.1841C3.97866 31.3468 5.55566 32 7.2 32C8.84434 32 10.4213 31.3468 11.5841 30.1841C12.7468 29.0213 13.4 27.4443 13.4 25.8ZM32 7.2C32 5.55566 31.3468 3.97866 30.1841 2.81594C29.0213 1.65321 27.4443 1 25.8 1C24.1557 1 22.5787 1.65321 21.4159 2.81594C20.2532 3.97866 19.6 5.55566 19.6 7.2C19.6 8.84434 20.2532 10.4213 21.4159 11.5841C22.5787 12.7468 24.1557 13.4 25.8 13.4C27.4443 13.4 29.0213 12.7468 30.1841 11.5841C31.3468 10.4213 32 8.84434 32 7.2ZM32 25.8C32 24.1557 31.3468 22.5787 30.1841 21.4159C29.0213 20.2532 27.4443 19.6 25.8 19.6C24.1557 19.6 22.5787 20.2532 21.4159 21.4159C20.2532 22.5787 19.6 24.1557 19.6 25.8C19.6 27.4443 20.2532 29.0213 21.4159 30.1841C22.5787 31.3468 24.1557 32 25.8 32C27.4443 32 29.0213 31.3468 30.1841 30.1841C31.3468 29.0213 32 27.4443 32 25.8Z" stroke="#FFFCF1" stroke-width="2" stroke-linecap="round" stroke-linejoin="round"/>
</svg>
